<svg
      width="22"
      height="22"
      viewBox="0 0 22 22"
      fill="none"
      xmlns="http://www.w3.org/2000/svg"
    >
      <path
        fillRule="evenodd"
        clipRule="evenodd"
        d="M6 0C2.68629 0 0 2.68629 0 6V14.2404L3.86169 10.3791C4.21304 10.0278 4.78261 10.0277 5.13412 10.3788L7.49267 12.7349L13.4276 6.8H10.0651C9.56802 6.8 9.16507 6.39706 9.16507 5.9C9.16507 5.40294 9.56802 5 10.0651 5H15.6002C16.0973 5 16.5002 5.40294 16.5002 5.9V11.4352C16.5002 11.9322 16.0973 12.3352 15.6002 12.3352C15.1032 12.3352 14.7002 11.9322 14.7002 11.4352V8.07296L8.12939 14.6438C7.77805 14.9951 7.20846 14.9953 6.85693 14.6441L4.49835 12.288L0.114312 16.6715C0.659179 19.4244 3.0872 21.5 6 21.5H15.5C18.8137 21.5 21.5 18.8137 21.5 15.5V6C21.5 2.68629 18.8137 0 15.5 0H6Z"
        fill="#E6E6E6"
      />
</svg>