<svg width="19" height="14" viewBox="0 0 19 14" fill="none" xmlns="http://www.w3.org/2000/svg">
<path d="M1.174 2.21559H17.826C18.474 2.21559 19 1.71929 19 1.10779C19 0.496291 18.474 0 17.826 0H1.174C0.525951 0 0 0.496291 0 1.10779C0 1.71929 0.525951 2.21559 1.174 2.21559Z" fill="#121212"/>
<path d="M1.174 8.10916H17.826C18.474 8.10916 19 7.61287 19 7.00137C19 6.38987 18.474 5.89357 17.826 5.89357H1.174C0.525951 5.89357 0 6.38987 0 7.00137C0 7.61287 0.525951 8.10916 1.174 8.10916Z" fill="#121212"/>
<path d="M1.174 13.9999H17.826C18.474 13.9999 19 13.5037 19 12.8922C19 12.2807 18.474 11.7844 17.826 11.7844H1.174C0.525951 11.7844 0 12.2807 0 12.8922C0 13.5037 0.525951 13.9999 1.174 13.9999Z" fill="#121212"/>
</svg>
